<svg width="50" height="50" viewBox="0 0 50 50" fill="none" xmlns="http://www.w3.org/2000/svg">
<rect width="50" height="50" rx="25" fill="#C5F369"/>
<path d="M14.3333 33H35.6667C36.4 33 37 32.4 37 31.6667C37 30.9333 36.4 30.3333 35.6667 30.3333H14.3333C13.6 30.3333 13 30.9333 13 31.6667C13 32.4 13.6 33 14.3333 33ZM14.3333 26.3333H35.6667C36.4 26.3333 37 25.7333 37 25C37 24.2667 36.4 23.6667 35.6667 23.6667H14.3333C13.6 23.6667 13 24.2667 13 25C13 25.7333 13.6 26.3333 14.3333 26.3333ZM13 18.3333C13 19.0667 13.6 19.6667 14.3333 19.6667H35.6667C36.4 19.6667 37 19.0667 37 18.3333C37 17.6 36.4 17 35.6667 17H14.3333C13.6 17 13 17.6 13 18.3333Z" fill="#282828"/>
</svg>
