<svg width="141" height="19" viewBox="0 0 141 19" fill="none" xmlns="http://www.w3.org/2000/svg">
<path d="M6.86664 0.86C8.82664 0.86 10.3533 1.34 11.4466 2.3C12.5533 3.26 13.1066 4.60667 13.1066 6.34C13.1066 7.98 12.6066 9.26667 11.6066 10.2C10.62 11.1333 9.23331 11.6 7.44664 11.6C6.85997 11.6 6.28664 11.54 5.72664 11.42C5.17997 11.3 4.58664 11.1 3.94664 10.82V15H0.746641V6.72C0.746641 4.84 1.26664 3.39333 2.30664 2.38C3.35997 1.36667 4.87997 0.86 6.86664 0.86ZM6.88664 9.16C7.83331 9.16 8.55997 8.92 9.06664 8.44C9.58664 7.96 9.84664 7.28 9.84664 6.4C9.84664 5.50667 9.58664 4.81333 9.06664 4.32C8.55997 3.82667 7.85331 3.58 6.94664 3.58C5.99997 3.58 5.25997 3.85333 4.72664 4.4C4.20664 4.94667 3.94664 5.71333 3.94664 6.7V8.26C4.34664 8.54 4.79997 8.76 5.30664 8.92C5.82664 9.08 6.35331 9.16 6.88664 9.16ZM25.9245 4.24V15H22.9445V13.76C22.1711 14.6933 21.0511 15.16 19.5845 15.16C18.5711 15.16 17.6511 14.9333 16.8245 14.48C16.0111 14.0267 15.3711 13.38 14.9045 12.54C14.4378 11.7 14.2045 10.7267 14.2045 9.62C14.2045 8.51333 14.4378 7.54 14.9045 6.7C15.3711 5.86 16.0111 5.21333 16.8245 4.76C17.6511 4.30667 18.5711 4.08 19.5845 4.08C20.9578 4.08 22.0311 4.51333 22.8045 5.38V4.24H25.9245ZM20.1245 12.6C20.9111 12.6 21.5645 12.3333 22.0845 11.8C22.6045 11.2533 22.8645 10.5267 22.8645 9.62C22.8645 8.71333 22.6045 7.99333 22.0845 7.46C21.5645 6.91333 20.9111 6.64 20.1245 6.64C19.3245 6.64 18.6645 6.91333 18.1445 7.46C17.6245 7.99333 17.3645 8.71333 17.3645 9.62C17.3645 10.5267 17.6245 11.2533 18.1445 11.8C18.6645 12.3333 19.3245 12.6 20.1245 12.6ZM35.7554 9.4C36.3954 9.6 36.8887 9.90667 37.2354 10.32C37.5954 10.7333 37.7754 11.2267 37.7754 11.8C37.7754 12.48 37.5421 13.08 37.0754 13.6C36.6087 14.1067 35.9687 14.5 35.1554 14.78C34.3421 15.06 33.4221 15.2 32.3954 15.2C31.5554 15.2 30.7287 15.1133 29.9154 14.94C29.1021 14.7667 28.3487 14.5067 27.6554 14.16L28.4954 11.98C29.6287 12.5267 30.8821 12.8 32.2554 12.8C32.9887 12.8 33.5621 12.6933 33.9754 12.48C34.4021 12.2533 34.6154 11.94 34.6154 11.54C34.6154 11.1933 34.4687 10.9333 34.1754 10.76C33.8821 10.5733 33.4554 10.48 32.8954 10.48H30.6954V8.54H32.6154C33.1621 8.54 33.5821 8.45333 33.8754 8.28C34.1687 8.10667 34.3154 7.85333 34.3154 7.52C34.3154 7.17333 34.1287 6.90667 33.7554 6.72C33.3954 6.53333 32.8754 6.44 32.1954 6.44C31.1554 6.44 30.0221 6.68667 28.7954 7.18L28.0354 5.02C29.5287 4.36667 30.9821 4.04 32.3954 4.04C33.3687 4.04 34.2354 4.16 34.9954 4.4C35.7687 4.64 36.3754 4.99333 36.8154 5.46C37.2554 5.91333 37.4754 6.44667 37.4754 7.06C37.4754 7.56667 37.3221 8.02667 37.0154 8.44C36.7087 8.84 36.2887 9.16 35.7554 9.4ZM48.6649 6.8H43.1449V15H40.0449V4.24H48.6649V6.8ZM54.9091 15.16C53.7758 15.16 52.7558 14.9267 51.8491 14.46C50.9558 13.98 50.2558 13.32 49.7491 12.48C49.2425 11.64 48.9891 10.6867 48.9891 9.62C48.9891 8.55333 49.2425 7.6 49.7491 6.76C50.2558 5.92 50.9558 5.26667 51.8491 4.8C52.7558 4.32 53.7758 4.08 54.9091 4.08C56.0425 4.08 57.0558 4.32 57.9491 4.8C58.8425 5.26667 59.5425 5.92 60.0491 6.76C60.5558 7.6 60.8091 8.55333 60.8091 9.62C60.8091 10.6867 60.5558 11.64 60.0491 12.48C59.5425 13.32 58.8425 13.98 57.9491 14.46C57.0558 14.9267 56.0425 15.16 54.9091 15.16ZM54.9091 12.6C55.7091 12.6 56.3625 12.3333 56.8691 11.8C57.3891 11.2533 57.6491 10.5267 57.6491 9.62C57.6491 8.71333 57.3891 7.99333 56.8691 7.46C56.3625 6.91333 55.7091 6.64 54.9091 6.64C54.1091 6.64 53.4491 6.91333 52.9291 7.46C52.4091 7.99333 52.1491 8.71333 52.1491 9.62C52.1491 10.5267 52.4091 11.2533 52.9291 11.8C53.4491 12.3333 54.1091 12.6 54.9091 12.6ZM71.1751 9.38C72.4417 9.80667 73.0751 10.66 73.0751 11.94C73.0751 12.9133 72.7084 13.6667 71.9751 14.2C71.2417 14.7333 70.1484 15 68.6951 15H62.9551V4.24H68.4551C69.8017 4.24 70.8551 4.48667 71.6151 4.98C72.3751 5.46 72.7551 6.14 72.7551 7.02C72.7551 7.55333 72.6151 8.02667 72.3351 8.44C72.0684 8.84 71.6817 9.15333 71.1751 9.38ZM65.8151 8.66H68.1751C69.2684 8.66 69.8151 8.27333 69.8151 7.5C69.8151 6.74 69.2684 6.36 68.1751 6.36H65.8151V8.66ZM68.4351 12.88C69.5817 12.88 70.1551 12.4867 70.1551 11.7C70.1551 11.2867 70.0217 10.9867 69.7551 10.8C69.4884 10.6 69.0684 10.5 68.4951 10.5H65.8151V12.88H68.4351ZM80.4365 15.16C79.3032 15.16 78.2832 14.9267 77.3765 14.46C76.4832 13.98 75.7832 13.32 75.2765 12.48C74.7698 11.64 74.5165 10.6867 74.5165 9.62C74.5165 8.55333 74.7698 7.6 75.2765 6.76C75.7832 5.92 76.4832 5.26667 77.3765 4.8C78.2832 4.32 79.3032 4.08 80.4365 4.08C81.5698 4.08 82.5832 4.32 83.4765 4.8C84.3698 5.26667 85.0698 5.92 85.5765 6.76C86.0832 7.6 86.3365 8.55333 86.3365 9.62C86.3365 10.6867 86.0832 11.64 85.5765 12.48C85.0698 13.32 84.3698 13.98 83.4765 14.46C82.5832 14.9267 81.5698 15.16 80.4365 15.16ZM80.4365 12.6C81.2365 12.6 81.8898 12.3333 82.3965 11.8C82.9165 11.2533 83.1765 10.5267 83.1765 9.62C83.1765 8.71333 82.9165 7.99333 82.3965 7.46C81.8898 6.91333 81.2365 6.64 80.4365 6.64C79.6365 6.64 78.9765 6.91333 78.4565 7.46C77.9365 7.99333 77.6765 8.71333 77.6765 9.62C77.6765 10.5267 77.9365 11.2533 78.4565 11.8C78.9765 12.3333 79.6365 12.6 80.4365 12.6ZM94.0024 4.08C95.1491 4.08 96.1491 4.30667 97.0024 4.76C97.8558 5.21333 98.5158 5.86 98.9824 6.7C99.4491 7.54 99.6824 8.52 99.6824 9.64C99.6824 10.7333 99.4624 11.7 99.0224 12.54C98.5824 13.3667 97.9624 14.0133 97.1624 14.48C96.3624 14.9333 95.4424 15.16 94.4024 15.16C93.0291 15.16 91.9558 14.7267 91.1824 13.86V18.88H88.0624V9.66C88.0624 8.55333 88.3091 7.58 88.8024 6.74C89.2958 5.9 89.9891 5.24667 90.8824 4.78C91.7758 4.31333 92.8158 4.08 94.0024 4.08ZM93.8624 12.6C94.6758 12.6 95.3358 12.3267 95.8424 11.78C96.3491 11.2333 96.6024 10.52 96.6024 9.64C96.6024 8.74667 96.3491 8.02667 95.8424 7.48C95.3358 6.92 94.6758 6.64 93.8624 6.64C93.0491 6.64 92.3891 6.91333 91.8824 7.46C91.3891 8.00667 91.1424 8.72667 91.1424 9.62C91.1424 10.5133 91.3891 11.2333 91.8824 11.78C92.3758 12.3267 93.0358 12.6 93.8624 12.6ZM101.881 4.24H104.981V8.44H109.661V4.24H112.781V15H109.661V10.98H104.981V15H101.881V4.24ZM126.388 4.24V15H123.408V13.74C123.008 14.2067 122.514 14.56 121.928 14.8C121.354 15.04 120.741 15.16 120.088 15.16C118.674 15.16 117.548 14.7533 116.708 13.94C115.881 13.1267 115.468 11.92 115.468 10.32V4.24H118.588V9.86C118.588 11.5933 119.314 12.46 120.768 12.46C121.528 12.46 122.134 12.22 122.588 11.74C123.041 11.2467 123.268 10.52 123.268 9.56V4.24H126.388ZM134.101 10.92H132.481V15H129.361V4.24H132.481V8.42H134.161L137.081 4.24H140.401L136.641 9.4L140.661 15H136.981L134.101 10.92Z" fill="#C5F369"/>
</svg>
