<svg width="50" height="50" viewBox="0 0 50 50" fill="none" xmlns="http://www.w3.org/2000/svg">
<rect width="50" height="50" rx="25" fill="#C5F369"/>
<path d="M26.028 15.0012C26.7577 14.9984 27.4874 15.0058 28.2169 15.0232L28.4109 15.0302C28.6349 15.0382 28.8559 15.0482 29.1229 15.0602C30.1868 15.1102 30.9128 15.2782 31.5497 15.5252C32.2097 15.7792 32.7657 16.1232 33.3216 16.6792C33.83 17.1788 34.2234 17.7831 34.4746 18.4501C34.7216 19.0871 34.8896 19.8141 34.9396 20.878C34.9516 21.144 34.9616 21.366 34.9696 21.59L34.9756 21.784C34.9933 22.5132 35.001 23.2425 34.9986 23.9719L34.9996 24.7179V26.0279C35.002 26.7576 34.9943 27.4873 34.9766 28.2168L34.9706 28.4108C34.9626 28.6348 34.9526 28.8558 34.9406 29.1227C34.8906 30.1867 34.7206 30.9127 34.4746 31.5497C34.2242 32.2174 33.8307 32.8222 33.3216 33.3216C32.8216 33.8299 32.217 34.2233 31.5497 34.4746C30.9128 34.7216 30.1868 34.8896 29.1229 34.9396C28.8559 34.9516 28.6349 34.9615 28.4109 34.9696L28.2169 34.9756C27.4874 34.9933 26.7577 35.001 26.028 34.9986L25.282 34.9995H23.9731C23.2434 35.002 22.5137 34.9943 21.7842 34.9766L21.5902 34.9706C21.3529 34.9619 21.1155 34.9519 20.8783 34.9406C19.8143 34.8906 19.0884 34.7206 18.4504 34.4746C17.7831 34.2239 17.1787 33.8304 16.6795 33.3216C16.1706 32.8219 15.7768 32.2172 15.5256 31.5497C15.2786 30.9127 15.1106 30.1867 15.0606 29.1227C15.0494 28.8855 15.0394 28.6481 15.0306 28.4108L15.0256 28.2168C15.0071 27.4873 14.9988 26.7576 15.0006 26.0279V23.9719C14.9978 23.2426 15.0051 22.5132 15.0226 21.784L15.0296 21.59C15.0376 21.366 15.0476 21.144 15.0596 20.878C15.1096 19.8131 15.2776 19.0881 15.5245 18.4501C15.7759 17.7828 16.1705 17.1786 16.6805 16.6802C17.1794 16.1709 17.7834 15.7768 18.4504 15.5252C19.0884 15.2782 19.8133 15.1102 20.8783 15.0602L21.5902 15.0302L21.7842 15.0252C22.5134 15.0068 23.2427 14.9985 23.9721 15.0002L26.028 15.0012ZM25.0001 20.0011C24.3376 19.9917 23.6799 20.1141 23.0651 20.3611C22.4504 20.6082 21.8909 20.9749 21.4191 21.4401C20.9473 21.9052 20.5727 22.4595 20.317 23.0707C20.0613 23.6819 19.9296 24.3379 19.9296 25.0004C19.9296 25.6629 20.0613 26.3189 20.317 26.9301C20.5727 27.5413 20.9473 28.0956 21.4191 28.5607C21.8909 29.0259 22.4504 29.3926 23.0651 29.6397C23.6799 29.8867 24.3376 30.0091 25.0001 29.9997C26.3261 29.9997 27.5978 29.473 28.5354 28.5353C29.4731 27.5977 29.9998 26.3259 29.9998 24.9999C29.9998 23.6739 29.4731 22.4021 28.5354 21.4645C27.5978 20.5268 26.3261 20.0011 25.0001 20.0011ZM25.0001 22.001C25.3986 21.9936 25.7945 22.0658 26.1648 22.2132C26.5351 22.3606 26.8723 22.5803 27.1567 22.8595C27.4412 23.1387 27.6671 23.4718 27.8214 23.8393C27.9756 24.2068 28.0551 24.6013 28.0552 24.9999C28.0552 25.3984 27.9759 25.793 27.8217 26.1606C27.6676 26.5281 27.4418 26.8613 27.1574 27.1406C26.8731 27.4198 26.536 27.6397 26.1657 27.7872C25.7955 27.9347 25.3996 28.007 25.0011 27.9998C24.2055 27.9998 23.4424 27.6837 22.8799 27.1211C22.3173 26.5585 22.0012 25.7955 22.0012 24.9999C22.0012 24.2043 22.3173 23.4412 22.8799 22.8786C23.4424 22.3161 24.2055 22 25.0011 22L25.0001 22.001ZM30.2498 18.5011C29.9272 18.514 29.6221 18.6513 29.3984 18.8841C29.1748 19.1169 29.0498 19.4272 29.0498 19.7501C29.0498 20.0729 29.1748 20.3833 29.3984 20.6161C29.6221 20.8489 29.9272 20.9861 30.2498 20.999C30.5813 20.999 30.8992 20.8673 31.1336 20.6329C31.368 20.3985 31.4997 20.0806 31.4997 19.7491C31.4997 19.4176 31.368 19.0996 31.1336 18.8652C30.8992 18.6308 30.5813 18.4991 30.2498 18.4991V18.5011Z" fill="#171717"/>
</svg>
