<svg width="156" height="20" viewBox="0 0 156 20" fill="none" xmlns="http://www.w3.org/2000/svg">
<path d="M6.79245 0C8.96781 0 10.6622 0.532741 11.8757 1.59822C13.104 2.66371 13.7181 4.15834 13.7181 6.08213C13.7181 7.90233 13.1632 9.33037 12.0533 10.3663C10.9582 11.4021 9.41916 11.9201 7.43618 11.9201C6.78505 11.9201 6.14872 11.8535 5.52719 11.7203C4.92046 11.5871 4.26193 11.3652 3.55161 11.0544V15.6937H0V6.50388C0 4.41731 0.577137 2.81169 1.73141 1.68701C2.90048 0.562338 4.5875 0 6.79245 0ZM6.81465 9.21199C7.86533 9.21199 8.67185 8.94562 9.23419 8.41288C9.81132 7.88013 10.0999 7.12542 10.0999 6.14872C10.0999 5.15723 9.81132 4.38772 9.23419 3.84018C8.67185 3.29264 7.88753 3.01887 6.88124 3.01887C5.83056 3.01887 5.00925 3.32223 4.41731 3.92897C3.84018 4.5357 3.55161 5.38661 3.55161 6.48169V8.2131C3.99556 8.52386 4.49871 8.76803 5.06104 8.94562C5.63818 9.1232 6.22272 9.21199 6.81465 9.21199Z" fill="white"/>
<path d="M27.9443 3.75139V15.6937H24.6369V14.3174C23.7786 15.3533 22.5355 15.8713 20.9077 15.8713C19.783 15.8713 18.7619 15.6197 17.8444 15.1165C16.9417 14.6134 16.2314 13.8957 15.7134 12.9634C15.1955 12.0311 14.9365 10.9508 14.9365 9.72253C14.9365 8.49427 15.1955 7.41398 15.7134 6.48169C16.2314 5.54939 16.9417 4.83167 17.8444 4.32852C18.7619 3.82538 19.783 3.57381 20.9077 3.57381C22.4319 3.57381 23.6232 4.05475 24.4815 5.01665V3.75139H27.9443ZM21.507 13.03C22.3801 13.03 23.1052 12.734 23.6824 12.1421C24.2595 11.5353 24.5481 10.7288 24.5481 9.72253C24.5481 8.71624 24.2595 7.91713 23.6824 7.32519C23.1052 6.71846 22.3801 6.41509 21.507 6.41509C20.6191 6.41509 19.8866 6.71846 19.3094 7.32519C18.7323 7.91713 18.4437 8.71624 18.4437 9.72253C18.4437 10.7288 18.7323 11.5353 19.3094 12.1421C19.8866 12.734 20.6191 13.03 21.507 13.03Z" fill="white"/>
<path d="M38.8554 9.47836C39.5658 9.70033 40.1133 10.0407 40.4981 10.4994C40.8976 10.9582 41.0974 11.5057 41.0974 12.1421C41.0974 12.8968 40.8384 13.5627 40.3205 14.1398C39.8025 14.7022 39.0922 15.1387 38.1895 15.4495C37.2868 15.7603 36.2657 15.9156 35.1263 15.9156C34.194 15.9156 33.2765 15.8195 32.3738 15.6271C31.4711 15.4347 30.6349 15.1461 29.8654 14.7614L30.7977 12.3418C32.0556 12.9486 33.4466 13.2519 34.9709 13.2519C35.7848 13.2519 36.4211 13.1336 36.8799 12.8968C37.3534 12.6452 37.5902 12.2974 37.5902 11.8535C37.5902 11.4687 37.4274 11.1802 37.1018 10.9878C36.7763 10.7806 36.3027 10.677 35.6812 10.677H33.2395V8.52386H35.3704C35.9772 8.52386 36.4433 8.42767 36.7689 8.23529C37.0944 8.04292 37.2572 7.76175 37.2572 7.39179C37.2572 7.00703 37.05 6.71106 36.6357 6.50388C36.2361 6.29671 35.659 6.19312 34.9043 6.19312C33.75 6.19312 32.4921 6.46689 31.1307 7.01443L30.2872 4.61709C31.9446 3.89197 33.5576 3.52941 35.1263 3.52941C36.2065 3.52941 37.1684 3.6626 38.0119 3.92897C38.8702 4.19534 39.5436 4.5875 40.0319 5.10544C40.5203 5.60858 40.7644 6.20052 40.7644 6.88124C40.7644 7.44358 40.5942 7.95412 40.2539 8.41288C39.9135 8.85683 39.4474 9.21199 38.8554 9.47836Z" fill="white"/>
<path d="M53.1834 6.59267H47.0569V15.6937H43.6163V3.75139H53.1834V6.59267Z" fill="white"/>
<path d="M60.1138 15.8713C58.8559 15.8713 57.7238 15.6123 56.7175 15.0943C55.726 14.5616 54.9491 13.8291 54.3868 12.8968C53.8245 11.9645 53.5433 10.9064 53.5433 9.72253C53.5433 8.53866 53.8245 7.48058 54.3868 6.54828C54.9491 5.61598 55.726 4.89086 56.7175 4.37292C57.7238 3.84018 58.8559 3.57381 60.1138 3.57381C61.3716 3.57381 62.4963 3.84018 63.4878 4.37292C64.4793 4.89086 65.2562 5.61598 65.8185 6.54828C66.3809 7.48058 66.662 8.53866 66.662 9.72253C66.662 10.9064 66.3809 11.9645 65.8185 12.8968C65.2562 13.8291 64.4793 14.5616 63.4878 15.0943C62.4963 15.6123 61.3716 15.8713 60.1138 15.8713ZM60.1138 13.03C61.0017 13.03 61.7268 12.734 62.2891 12.1421C62.8663 11.5353 63.1548 10.7288 63.1548 9.72253C63.1548 8.71624 62.8663 7.91713 62.2891 7.32519C61.7268 6.71846 61.0017 6.41509 60.1138 6.41509C59.2259 6.41509 58.4933 6.71846 57.9162 7.32519C57.3391 7.91713 57.0505 8.71624 57.0505 9.72253C57.0505 10.7288 57.3391 11.5353 57.9162 12.1421C58.4933 12.734 59.2259 13.03 60.1138 13.03Z" fill="white"/>
<path d="M78.167 9.45616C79.5728 9.92971 80.2757 10.8768 80.2757 12.2974C80.2757 13.3777 79.8688 14.2138 79.0549 14.8058C78.241 15.3977 77.0275 15.6937 75.4145 15.6937H69.0438V3.75139H75.1481C76.6427 3.75139 77.8118 4.02516 78.6553 4.5727C79.4988 5.10544 79.9206 5.86016 79.9206 6.83685C79.9206 7.42878 79.7652 7.95412 79.4544 8.41288C79.1585 8.85683 78.7293 9.20459 78.167 9.45616ZM72.218 8.65705H74.8373C76.0508 8.65705 76.6575 8.2279 76.6575 7.36959C76.6575 6.52608 76.0508 6.10433 74.8373 6.10433H72.218V8.65705ZM75.1259 13.3407C76.3986 13.3407 77.0349 12.9042 77.0349 12.0311C77.0349 11.5723 76.8869 11.2394 76.5909 11.0322C76.295 10.8102 75.8288 10.6992 75.1925 10.6992H72.218V13.3407H75.1259Z" fill="white"/>
<path d="M88.446 15.8713C87.1881 15.8713 86.0561 15.6123 85.0498 15.0943C84.0583 14.5616 83.2814 13.8291 82.719 12.8968C82.1567 11.9645 81.8755 10.9064 81.8755 9.72253C81.8755 8.53866 82.1567 7.48058 82.719 6.54828C83.2814 5.61598 84.0583 4.89086 85.0498 4.37292C86.0561 3.84018 87.1881 3.57381 88.446 3.57381C89.7039 3.57381 90.8285 3.84018 91.82 4.37292C92.8115 4.89086 93.5884 5.61598 94.1508 6.54828C94.7131 7.48058 94.9943 8.53866 94.9943 9.72253C94.9943 10.9064 94.7131 11.9645 94.1508 12.8968C93.5884 13.8291 92.8115 14.5616 91.82 15.0943C90.8285 15.6123 89.7039 15.8713 88.446 15.8713ZM88.446 13.03C89.3339 13.03 90.059 12.734 90.6214 12.1421C91.1985 11.5353 91.4871 10.7288 91.4871 9.72253C91.4871 8.71624 91.1985 7.91713 90.6214 7.32519C90.059 6.71846 89.3339 6.41509 88.446 6.41509C87.5581 6.41509 86.8256 6.71846 86.2484 7.32519C85.6713 7.91713 85.3827 8.71624 85.3827 9.72253C85.3827 10.7288 85.6713 11.5353 86.2484 12.1421C86.8256 12.734 87.5581 13.03 88.446 13.03Z" fill="white"/>
<path d="M103.503 3.57381C104.775 3.57381 105.885 3.82538 106.832 4.32852C107.779 4.83167 108.512 5.54939 109.03 6.48169C109.548 7.41398 109.807 8.50167 109.807 9.74473C109.807 10.9582 109.562 12.0311 109.074 12.9634C108.586 13.8809 107.898 14.5986 107.01 15.1165C106.122 15.6197 105.101 15.8713 103.946 15.8713C102.422 15.8713 101.231 15.3903 100.373 14.4284V20H96.9099V9.76693C96.9099 8.53866 97.1836 7.45838 97.7312 6.52608C98.2787 5.59379 99.0482 4.86866 100.04 4.35072C101.031 3.83278 102.185 3.57381 103.503 3.57381ZM103.347 13.03C104.25 13.03 104.982 12.7266 105.545 12.1199C106.107 11.5131 106.388 10.7214 106.388 9.74473C106.388 8.75324 106.107 7.95413 105.545 7.34739C104.982 6.72586 104.25 6.41509 103.347 6.41509C102.444 6.41509 101.712 6.71846 101.15 7.32519C100.602 7.93193 100.328 8.73104 100.328 9.72253C100.328 10.714 100.602 11.5131 101.15 12.1199C101.697 12.7266 102.43 13.03 103.347 13.03Z" fill="white"/>
<path d="M112.247 3.75139H115.687V8.41288H120.881V3.75139H124.344V15.6937H120.881V11.232H115.687V15.6937H112.247V3.75139Z" fill="white"/>
<path d="M139.446 3.75139V15.6937H136.139V14.2952C135.695 14.8132 135.147 15.2053 134.496 15.4717C133.86 15.7381 133.179 15.8713 132.454 15.8713C130.885 15.8713 129.635 15.4199 128.702 14.5172C127.785 13.6145 127.326 12.2753 127.326 10.4994V3.75139H130.789V9.9889C130.789 11.9127 131.596 12.8746 133.209 12.8746C134.052 12.8746 134.725 12.6082 135.229 12.0755C135.732 11.5279 135.983 10.7214 135.983 9.65594V3.75139H139.446Z" fill="white"/>
<path d="M148.007 11.1654H146.209V15.6937H142.747V3.75139H146.209V8.39068H148.074L151.315 3.75139H155L150.827 9.47836L155.288 15.6937H151.204L148.007 11.1654Z" fill="white"/>
</svg>
