<svg width="50" height="50" viewBox="0 0 50 50" fill="none" xmlns="http://www.w3.org/2000/svg">
<rect width="50" height="50" rx="25" fill="#C5F369"/>
<path d="M34.1149 31.999H31.7071C30.7962 31.999 30.5217 31.265 28.8887 29.6397C27.4615 28.2716 26.8588 28.1015 26.4978 28.1015C25.9985 28.1015 25.8623 28.238 25.8623 28.9215V31.076C25.8623 31.6588 25.6723 32 24.1417 32C22.6568 31.9008 21.2169 31.4521 19.9405 30.6909C18.664 29.9296 17.5877 28.8777 16.8001 27.6216C14.93 25.3065 13.6288 22.5892 13 19.686C13 19.3269 13.1372 19.0014 13.8255 19.0014H16.2322C16.8508 19.0014 17.0735 19.2755 17.3163 19.9086C18.4848 23.3294 20.4788 26.305 21.2885 26.305C21.5988 26.305 21.7339 26.1685 21.7339 25.3989V21.8752C21.6315 20.2677 20.7733 20.1322 20.7733 19.5506C20.7842 19.3971 20.8548 19.2539 20.9701 19.1514C21.0854 19.0488 21.2363 18.995 21.3909 19.0014H25.1741C25.6913 19.0014 25.8623 19.2576 25.8623 19.8729V24.6292C25.8623 25.1427 26.084 25.3128 26.2402 25.3128C26.5506 25.3128 26.7891 25.1427 27.3581 24.5778C28.5777 23.0984 29.5741 21.4501 30.3159 19.685C30.3918 19.473 30.5353 19.2916 30.7246 19.1684C30.9138 19.0452 31.1384 18.9869 31.3641 19.0025H33.7719C34.4939 19.0025 34.6469 19.3616 34.4939 19.8739C33.6181 21.8252 32.5345 23.6774 31.2617 25.3989C31.002 25.7926 30.8985 25.9973 31.2617 26.4593C31.5002 26.8184 32.3447 27.5198 32.9115 28.1865C33.737 29.0055 34.4221 29.9526 34.9404 30.9899C35.1473 31.6577 34.8021 31.999 34.1149 31.999Z" fill="#171717"/>
</svg>
